<svg fill="#000000" height="64px" width="64px" version="1.1" id="Layer_1" xmlns="http://www.w3.org/2000/svg" xmlns:xlink="http://www.w3.org/1999/xlink" viewBox="0 0 512 512" xml:space="preserve"><g id="SVGRepo_bgCarrier" stroke-width="0"></g><g id="SVGRepo_tracerCarrier" stroke-linecap="round" stroke-linejoin="round"></g><g id="SVGRepo_iconCarrier"> <g> <g> <path d="M467.478,166.957h-44.265l-62.565-84.139c7.604-8.786,12.221-20.226,12.221-32.73C372.87,22.469,350.401,0,322.783,0 s-50.087,22.469-50.087,50.087c0,27.618,22.469,50.087,50.087,50.087c2.934,0,5.805-0.268,8.6-0.755l50.219,67.537H130.398 l50.219-67.537c2.796,0.486,5.667,0.755,8.601,0.755c27.618,0,50.087-22.469,50.087-50.087C239.304,22.469,216.835,0,189.217,0 c-27.618,0-50.087,22.469-50.087,50.087c0,12.504,4.617,23.944,12.221,32.73l-62.565,84.139H44.522 c-21.481,0-38.956,17.476-38.956,38.956v22.261c0,20.312,15.628,37.034,35.492,38.794l28.819,211.339 C72.495,497.515,89.089,512,108.475,512h295.05c19.386,0,35.98-14.485,38.599-33.693l28.819-211.339 c19.862-1.76,35.492-18.482,35.492-38.794v-22.261C506.435,184.432,488.959,166.957,467.478,166.957z M322.783,66.783 c-9.206,0-16.696-7.49-16.696-16.696s7.49-16.696,16.696-16.696c9.206,0,16.696,7.49,16.696,16.696S331.989,66.783,322.783,66.783 z M189.217,33.391c9.206,0,16.696,7.49,16.696,16.696s-7.49,16.696-16.696,16.696s-16.696-7.49-16.696-16.696 S180.011,33.391,189.217,33.391z M409.04,473.795c-0.374,2.745-2.745,4.814-5.515,4.814h-295.05c-2.769,0-5.14-2.069-5.515-4.813 L74.779,267.13h362.443L409.04,473.795z M473.043,228.174c0,3.069-2.497,5.565-5.565,5.565h-11.13H55.652h-11.13 c-3.069,0-5.565-2.497-5.565-5.565v-22.261c0-3.069,2.497-5.565,5.565-5.565h52.615c0.009,0,0.019,0,0.028,0 c0.007,0,0.012,0,0.019,0h317.634c0.007,0,0.012,0,0.019,0c0.009,0,0.019,0,0.028,0h52.615c3.069,0,5.565,2.497,5.565,5.565 V228.174z"></path> </g> </g> <g> <g> <path d="M256,300.522c-9.22,0-16.696,7.475-16.696,16.696v111.304c0,9.22,7.475,16.696,16.696,16.696 c9.22,0,16.696-7.475,16.696-16.696V317.217C272.696,307.997,265.22,300.522,256,300.522z"></path> </g> </g> <g> <g> <path d="M356.174,300.522c-9.22,0-16.696,7.475-16.696,16.696v111.304c0,9.22,7.475,16.696,16.696,16.696 c9.22,0,16.696-7.475,16.696-16.696V317.217C372.87,307.997,365.394,300.522,356.174,300.522z"></path> </g> </g> <g> <g> <path d="M155.826,300.522c-9.22,0-16.696,7.475-16.696,16.696v111.304c0,9.22,7.475,16.696,16.696,16.696 s16.696-7.475,16.696-16.696V317.217C172.522,307.997,165.047,300.522,155.826,300.522z"></path> </g> </g> </g></svg>
